<svg width="223" height="86" viewBox="0 0 223 86" fill="none" xmlns="http://www.w3.org/2000/svg">
<path d="M141.792 68H136.352V20.896H142.368V42.08C143.392 40.032 144.907 38.4747 146.912 37.408C148.917 36.3413 151.2 35.808 153.76 35.808C156.747 35.808 159.307 36.5333 161.44 37.984C163.573 39.392 165.216 41.3547 166.368 43.872C167.52 46.3893 168.096 49.2693 168.096 52.512C168.096 55.6267 167.499 58.4213 166.304 60.896C165.109 63.3707 163.403 65.312 161.184 66.72C159.008 68.0853 156.405 68.768 153.376 68.768C150.944 68.768 148.725 68.2133 146.72 67.104C144.757 65.9947 143.264 64.3947 142.24 62.304L141.792 68ZM142.432 52.256C142.432 54.432 142.816 56.352 143.584 58.016C144.395 59.68 145.525 60.9813 146.976 61.92C148.469 62.8587 150.24 63.328 152.288 63.328C154.336 63.328 156.085 62.8587 157.536 61.92C158.987 60.9813 160.096 59.68 160.864 58.016C161.675 56.352 162.08 54.432 162.08 52.256C162.08 50.1227 161.675 48.2453 160.864 46.624C160.096 44.96 158.987 43.6587 157.536 42.72C156.085 41.7387 154.336 41.248 152.288 41.248C150.24 41.248 148.469 41.7173 146.976 42.656C145.525 43.5947 144.395 44.896 143.584 46.56C142.816 48.1813 142.432 50.08 142.432 52.256ZM176.647 68V36.704H182.663V68H176.647ZM179.591 29.28C178.524 29.28 177.586 28.896 176.775 28.128C176.007 27.3173 175.623 26.3787 175.623 25.312C175.623 24.2027 176.007 23.264 176.775 22.496C177.586 21.728 178.524 21.344 179.591 21.344C180.7 21.344 181.639 21.728 182.407 22.496C183.175 23.264 183.559 24.2027 183.559 25.312C183.559 26.3787 183.175 27.3173 182.407 28.128C181.639 28.896 180.7 29.28 179.591 29.28ZM199.461 68H193.445V20.896H199.461V68ZM210.237 68V36.704H216.253V68H210.237ZM213.181 29.28C212.114 29.28 211.176 28.896 210.365 28.128C209.597 27.3173 209.213 26.3787 209.213 25.312C209.213 24.2027 209.597 23.264 210.365 22.496C211.176 21.728 212.114 21.344 213.181 21.344C214.29 21.344 215.229 21.728 215.997 22.496C216.765 23.264 217.149 24.2027 217.149 25.312C217.149 26.3787 216.765 27.3173 215.997 28.128C215.229 28.896 214.29 29.28 213.181 29.28Z" fill="white"/>
<path d="M4.352 68V36.704H10.368V68H4.352ZM7.296 29.28C6.22933 29.28 5.29067 28.896 4.48 28.128C3.712 27.3173 3.328 26.3787 3.328 25.312C3.328 24.2027 3.712 23.264 4.48 22.496C5.29067 21.728 6.22933 21.344 7.296 21.344C8.40533 21.344 9.344 21.728 10.112 22.496C10.88 23.264 11.264 24.2027 11.264 25.312C11.264 26.3787 10.88 27.3173 10.112 28.128C9.344 28.896 8.40533 29.28 7.296 29.28ZM27.038 68H21.022V36.704H26.398L27.23 42.464L26.462 41.952C27.102 40.2027 28.2753 38.752 29.982 37.6C31.7313 36.4053 33.8433 35.808 36.318 35.808C39.0913 35.808 41.3953 36.5547 43.23 38.048C45.0647 39.5413 46.2593 41.5253 46.814 44H45.726C46.1527 41.5253 47.326 39.5413 49.246 38.048C51.166 36.5547 53.534 35.808 56.35 35.808C59.934 35.808 62.75 36.8533 64.798 38.944C66.846 41.0347 67.87 43.8933 67.87 47.52V68H61.982V48.992C61.982 46.5173 61.342 44.6187 60.062 43.296C58.8247 41.9307 57.1393 41.248 55.006 41.248C53.5127 41.248 52.19 41.5893 51.038 42.272C49.9287 42.912 49.054 43.8507 48.414 45.088C47.774 46.3253 47.454 47.776 47.454 49.44V68H41.502V48.928C41.502 46.4533 40.8833 44.576 39.646 43.296C38.4087 41.9733 36.7233 41.312 34.59 41.312C33.0967 41.312 31.774 41.6533 30.622 42.336C29.5127 42.976 28.638 43.9147 27.998 45.152C27.358 46.3467 27.038 47.776 27.038 49.44V68Z" fill="white"/>
<path d="M102.083 69H102.082C93.9695 69 88.1557 67.227 84.8005 63.7323C81.9992 60.8127 81.991 57.7221 82.001 57.3441V40.9515C82.001 38.6007 83.0381 36.3822 84.8458 34.8648L84.8948 34.8261L96.9222 25.8711C99.9175 23.3763 104.247 23.3763 107.244 25.8711L119.321 34.8639C121.129 36.3822 122.165 38.6007 122.165 40.9506V57.3432C122.175 57.7212 122.167 60.8118 119.364 63.7314C116.01 67.2261 110.195 68.9991 102.083 68.9991V69ZM86.1903 36.4884C84.873 37.6053 84.1188 39.2298 84.1188 40.9506V57.4098C84.1142 57.5052 84.0598 59.946 86.3825 62.331C89.2916 65.3172 94.7211 66.8958 102.082 66.8967C109.444 66.8967 114.873 65.3181 117.783 62.331C120.107 59.946 120.052 57.5043 120.048 57.4017V57.3585L120.047 40.9497C120.047 39.2289 119.292 37.6044 117.975 36.4875L105.9 27.4956C103.688 25.638 100.477 25.638 98.2649 27.4956L98.2159 27.5343L86.1903 36.4884Z" stroke="white" stroke-width="2"/>
<path d="M108.552 68.4915C107.968 68.4915 107.494 68.0208 107.494 67.4403V54.4137C107.494 53.5596 107.18 52.7523 106.611 52.1394C105.194 50.6139 103.735 49.8273 102.273 49.803C100.345 49.758 98.6844 51.0324 97.6246 52.0962C97.009 52.7145 96.67 53.5488 96.67 54.4452V67.4394C96.67 68.0199 96.1959 68.4906 95.6111 68.4906C95.0264 68.4906 94.5522 68.0199 94.5522 67.4394V54.4452C94.5522 52.9917 95.108 51.6327 96.1179 50.6184C97.4487 49.281 99.5774 47.6997 102.197 47.6997C102.235 47.6997 102.272 47.6997 102.309 47.7006C104.371 47.7357 106.342 48.75 108.166 50.7138C109.096 51.7146 109.609 53.0286 109.609 54.4128V67.4394C109.609 68.0199 109.135 68.4906 108.551 68.4906L108.552 68.4915Z" stroke="white" stroke-width="2"/>
</svg>
